<svg width="1917" height="874" viewBox="0 0 1917 874" fill="none" xmlns="http://www.w3.org/2000/svg">
<g style="mix-blend-mode:overlay">
<path d="M117.005 157.94L112.955 106.64H128.615C131.675 106.64 134.375 106.19 136.715 105.29C139.055 104.21 140.855 102.68 142.115 100.7C143.375 98.72 144.005 96.38 144.005 93.68C144.005 90.98 143.375 88.73 142.115 86.93C140.855 84.95 139.145 83.51 136.985 82.61C135.005 81.53 132.575 80.99 129.695 80.99C124.115 80.99 118.805 82.79 113.765 86.39C108.905 89.99 104.855 94.22 101.615 99.08L70.2947 67.49C75.6947 57.77 83.5247 49.49 93.7847 42.65C104.225 35.63 117.005 32.12 132.125 32.12C144.185 32.12 154.805 34.82 163.985 40.22C173.345 45.44 180.635 52.46 185.855 61.28C191.075 69.92 193.685 79.46 193.685 89.9C193.685 101.42 191.435 110.96 186.935 118.52C182.615 126.08 176.855 132.11 169.655 136.61C162.635 140.93 155.075 144.08 146.975 146.06L158.585 127.43L156.425 157.94H117.005ZM136.715 236.24C128.255 236.24 121.235 233.36 115.655 227.6C110.075 221.84 107.285 214.82 107.285 206.54C107.285 198.08 110.075 190.97 115.655 185.21C121.235 179.45 128.255 176.57 136.715 176.57C145.175 176.57 152.105 179.45 157.505 185.21C163.085 190.97 165.875 198.08 165.875 206.54C165.875 214.82 163.085 221.84 157.505 227.6C152.105 233.36 145.175 236.24 136.715 236.24Z" fill="#FAFAFA" fill-opacity="0.015"/>
</g>
<g style="mix-blend-mode:overlay">
<path d="M221.005 757.94L216.955 706.64H232.615C235.675 706.64 238.375 706.19 240.715 705.29C243.055 704.21 244.855 702.68 246.115 700.7C247.375 698.72 248.005 696.38 248.005 693.68C248.005 690.98 247.375 688.73 246.115 686.93C244.855 684.95 243.145 683.51 240.985 682.61C239.005 681.53 236.575 680.99 233.695 680.99C228.115 680.99 222.805 682.79 217.765 686.39C212.905 689.99 208.855 694.22 205.615 699.08L174.295 667.49C179.695 657.77 187.525 649.49 197.785 642.65C208.225 635.63 221.005 632.12 236.125 632.12C248.185 632.12 258.805 634.82 267.985 640.22C277.345 645.44 284.635 652.46 289.855 661.28C295.075 669.92 297.685 679.46 297.685 689.9C297.685 701.42 295.435 710.96 290.935 718.52C286.615 726.08 280.855 732.11 273.655 736.61C266.635 740.93 259.075 744.08 250.975 746.06L262.585 727.43L260.425 757.94H221.005ZM240.715 836.24C232.255 836.24 225.235 833.36 219.655 827.6C214.075 821.84 211.285 814.82 211.285 806.54C211.285 798.08 214.075 790.97 219.655 785.21C225.235 779.45 232.255 776.57 240.715 776.57C249.175 776.57 256.105 779.45 261.505 785.21C267.085 790.97 269.875 798.08 269.875 806.54C269.875 814.82 267.085 821.84 261.505 827.6C256.105 833.36 249.175 836.24 240.715 836.24Z" fill="#FAFAFA" fill-opacity="0.015"/>
</g>
<g style="mix-blend-mode:overlay">
<path d="M1301 157.94L1296.95 106.64H1312.61C1315.67 106.64 1318.37 106.19 1320.71 105.29C1323.05 104.21 1324.85 102.68 1326.11 100.7C1327.37 98.72 1328 96.38 1328 93.68C1328 90.98 1327.37 88.73 1326.11 86.93C1324.85 84.95 1323.14 83.51 1320.98 82.61C1319 81.53 1316.57 80.99 1313.69 80.99C1308.11 80.99 1302.8 82.79 1297.76 86.39C1292.9 89.99 1288.85 94.22 1285.61 99.08L1254.29 67.49C1259.69 57.77 1267.52 49.49 1277.78 42.65C1288.22 35.63 1301 32.12 1316.12 32.12C1328.18 32.12 1338.8 34.82 1347.98 40.22C1357.34 45.44 1364.63 52.46 1369.85 61.28C1375.07 69.92 1377.68 79.46 1377.68 89.9C1377.68 101.42 1375.43 110.96 1370.93 118.52C1366.61 126.08 1360.85 132.11 1353.65 136.61C1346.63 140.93 1339.07 144.08 1330.97 146.06L1342.58 127.43L1340.42 157.94H1301ZM1320.71 236.24C1312.25 236.24 1305.23 233.36 1299.65 227.6C1294.07 221.84 1291.28 214.82 1291.28 206.54C1291.28 198.08 1294.07 190.97 1299.65 185.21C1305.23 179.45 1312.25 176.57 1320.71 176.57C1329.17 176.57 1336.1 179.45 1341.5 185.21C1347.08 190.97 1349.87 198.08 1349.87 206.54C1349.87 214.82 1347.08 221.84 1341.5 227.6C1336.1 233.36 1329.17 236.24 1320.71 236.24Z" fill="#FAFAFA" fill-opacity="0.015"/>
</g>
<g style="mix-blend-mode:overlay">
<path d="M1767 593.94L1762.95 542.64H1778.61C1781.67 542.64 1784.37 542.19 1786.71 541.29C1789.05 540.21 1790.85 538.68 1792.11 536.7C1793.37 534.72 1794 532.38 1794 529.68C1794 526.98 1793.37 524.73 1792.11 522.93C1790.85 520.95 1789.14 519.51 1786.98 518.61C1785 517.53 1782.57 516.99 1779.69 516.99C1774.11 516.99 1768.8 518.79 1763.76 522.39C1758.9 525.99 1754.85 530.22 1751.61 535.08L1720.29 503.49C1725.69 493.77 1733.52 485.49 1743.78 478.65C1754.22 471.63 1767 468.12 1782.12 468.12C1794.18 468.12 1804.8 470.82 1813.98 476.22C1823.34 481.44 1830.63 488.46 1835.85 497.28C1841.07 505.92 1843.68 515.46 1843.68 525.9C1843.68 537.42 1841.43 546.96 1836.93 554.52C1832.61 562.08 1826.85 568.11 1819.65 572.61C1812.63 576.93 1805.07 580.08 1796.97 582.06L1808.58 563.43L1806.42 593.94H1767ZM1786.71 672.24C1778.25 672.24 1771.23 669.36 1765.65 663.6C1760.07 657.84 1757.28 650.82 1757.28 642.54C1757.28 634.08 1760.07 626.97 1765.65 621.21C1771.23 615.45 1778.25 612.57 1786.71 612.57C1795.17 612.57 1802.1 615.45 1807.5 621.21C1813.08 626.97 1815.87 634.08 1815.87 642.54C1815.87 650.82 1813.08 657.84 1807.5 663.6C1802.1 669.36 1795.17 672.24 1786.71 672.24Z" fill="#FAFAFA" fill-opacity="0.015"/>
</g>
<g style="mix-blend-mode:overlay">
<path d="M874.005 409.94L869.955 358.64H885.615C888.675 358.64 891.375 358.19 893.715 357.29C896.055 356.21 897.855 354.68 899.115 352.7C900.375 350.72 901.005 348.38 901.005 345.68C901.005 342.98 900.375 340.73 899.115 338.93C897.855 336.95 896.145 335.51 893.985 334.61C892.005 333.53 889.575 332.99 886.695 332.99C881.115 332.99 875.805 334.79 870.765 338.39C865.905 341.99 861.855 346.22 858.615 351.08L827.295 319.49C832.695 309.77 840.525 301.49 850.785 294.65C861.225 287.63 874.005 284.12 889.125 284.12C901.185 284.12 911.805 286.82 920.985 292.22C930.345 297.44 937.635 304.46 942.855 313.28C948.075 321.92 950.685 331.46 950.685 341.9C950.685 353.42 948.435 362.96 943.935 370.52C939.615 378.08 933.855 384.11 926.655 388.61C919.635 392.93 912.075 396.08 903.975 398.06L915.585 379.43L913.425 409.94H874.005ZM893.715 488.24C885.255 488.24 878.235 485.36 872.655 479.6C867.075 473.84 864.285 466.82 864.285 458.54C864.285 450.08 867.075 442.97 872.655 437.21C878.235 431.45 885.255 428.57 893.715 428.57C902.175 428.57 909.105 431.45 914.505 437.21C920.085 442.97 922.875 450.08 922.875 458.54C922.875 466.82 920.085 473.84 914.505 479.6C909.105 485.36 902.175 488.24 893.715 488.24Z" fill="#FAFAFA" fill-opacity="0.015"/>
</g>
</svg>
